<svg data-bx-workspace="master" xmlns="http://www.w3.org/2000/svg" xmlns:bx="https://boxy-svg.com" id="svg1894" height="1083.0768" width="4332.5098" version="1.0"><defs id="defs1896"><linearGradient id="linearGradient823"><stop id="stop821" offset="0" style="stop-color:#fd6300;stop-opacity:1;"></stop></linearGradient><filter height="1.1032" y="-0.051600002" width="1.1032" x="-0.051600002" id="filter1352" style="color-interpolation-filters:sRGB"><feGaussianBlur id="feGaussianBlur1354" stdDeviation="4.9970926"></feGaussianBlur></filter><filter height="1.1032" y="-0.051600002" width="1.1032" x="-0.051600002" id="filter1352-9-2" style="color-interpolation-filters:sRGB"><feGaussianBlur id="feGaussianBlur1354-3-6" stdDeviation="4.9970926"></feGaussianBlur></filter><filter height="1.1032" y="-0.051600002" width="1.1032" x="-0.051600002" id="filter1352-3" style="color-interpolation-filters:sRGB"><feGaussianBlur id="feGaussianBlur1354-6" stdDeviation="4.9970926"></feGaussianBlur></filter><filter height="1.1032" y="-0.051600002" width="1.1032" x="-0.051600002" id="filter1352-6" style="color-interpolation-filters:sRGB"><feGaussianBlur id="feGaussianBlur1354-2" stdDeviation="4.9970926"></feGaussianBlur></filter><filter height="1.1032" y="-0.051600002" width="1.1032" x="-0.051600002" id="filter1352-0" style="color-interpolation-filters:sRGB"><feGaussianBlur id="feGaussianBlur1354-9" stdDeviation="4.9970926"></feGaussianBlur></filter></defs><g transform="translate(624.71198,55.830292)" id="layer1"><g id="g1934" transform="matrix(1.17657, 0, 0, 1, -265.524628, 191.4673)" style=""><path id="path11" style="fill:none;fill-rule:evenodd;stroke:#ff0a09;stroke-width:12" d="M 4.2160405,395.78396 H 3060"></path><path id="path13" style="fill:none;fill-rule:evenodd;stroke:#ff0a09;stroke-width:12" d="M 4.2160405,635.78396 H 3060"></path><path id="path15" style="fill:none;fill-rule:evenodd;stroke:#ff0a09;stroke-width:12" d="M 4.2160405,515.78396 H 3060"></path><path id="path17" style="fill:none;fill-rule:evenodd;stroke:#ff0a09;stroke-width:12" d="M 4.2160405,275.78396 H 3060"></path></g></g><g transform="translate(624.71198,55.830292)" id="layer2"><rect y="-55.830292" x="-624.71198" height="1083.0768" width="4332.5098" id="rect1606" style="opacity:1;fill:#000000;fill-opacity:0.55299539;fill-rule:nonzero;stroke:none;stroke-width:19.99999809;stroke-linecap:butt;stroke-linejoin:miter;stroke-miterlimit:4;stroke-dasharray:none;stroke-dashoffset:0;stroke-opacity:0.21198156;paint-order:markers stroke fill"></rect><path d="M 13.154 641.98 C 0.687 644.537 -10.867 651.378 -21.894 662.275 C -32.936 673.372 -38.846 686.029 -39.812 700.032 C -40.42 708.834 -38.102 719.044 -33.018 730.047 C -27.948 741.251 -19.663 749.661 -8.578 755.451 C -4.823 756.514 -3.156 758.639 -3.349 761.44 C -3.418 762.44 -4.891 763.343 -8.355 763.908 C -26.286 758.048 -40.65 747.208 -51.273 731.803 C -61.882 716.197 -66.739 698.978 -65.815 679.746 C -63.791 659.183 -56.25 640.408 -43.204 623.62 C -29.944 606.646 -13.633 595.109 5.727 589.008 L -3.209 517.037 C -35.858 540.512 -62.76 565.389 -84.144 592.053 C -105.514 618.517 -117.625 648.032 -120.677 680.584 C -121.283 695.214 -119.255 709.625 -114.579 723.616 C -109.916 737.806 -102.35 750.79 -91.907 762.967 C -70.807 787.136 -42.143 800.972 -6.331 804.649 C 5.957 804.693 19.143 803.392 33.429 800.76 L 13.154 641.98 Z M 27.73 640.976 L 48.399 796.969 C 80.136 786.697 97.441 760.756 100.284 719.547 C 99.432 705.62 96.277 692.94 90.218 681.467 C 84.373 669.808 76.157 660.397 65.369 653.221 C 54.581 646.045 42.169 641.972 27.73 640.976 Z M 0.977 430.093 C 7.87 426.549 15.973 420.073 24.871 410.839 C 33.756 401.804 42.564 390.955 51.067 378.678 C 59.785 366.214 66.913 353.44 72.45 340.356 C 77.973 327.471 81.048 315.02 81.849 303.418 C 82.194 298.417 82.138 293.388 81.439 288.918 C 81.134 281.661 79.314 275.907 75.767 271.843 C 72.205 267.98 67.53 265.647 61.514 265.232 C 49.482 264.402 38.143 271.056 27.496 285.196 C 19.193 297.486 11.928 312.261 6.329 329.16 C 0.516 346.246 -3.278 363.27 -4.88 380.646 C -5.244 400.52 -3.153 416.945 0.977 430.093 Z M -12.457 440.824 C -19.245 407.795 -21.981 374.441 -20.665 340.765 C -18.974 319.174 -15.374 299.121 -9.865 280.608 C -4.557 262.08 2.376 246.278 10.963 232.801 C 19.349 219.309 28.703 209.302 38.825 202.765 C 47.89 196.958 54.341 193.986 57.75 194.222 C 60.357 194.401 62.494 195.554 64.375 197.493 C 66.256 199.431 68.656 202.612 71.588 206.834 C 93.119 242.288 102.335 283.927 99.05 331.538 C 97.49 354.143 92.964 375.94 85.429 397.53 C 78.11 418.934 68.051 439.143 55.282 457.759 C 42.299 476.561 27.489 492.624 10.64 506.134 L 21.444 586.072 C 30.337 585.681 36.408 585.296 39.817 585.531 C 55.057 586.583 68.473 590.724 80.664 597.997 C 92.856 605.27 103.091 614.62 111.155 626.231 C 119.233 637.642 125.196 650.515 129.042 664.85 C 132.688 679.172 134.287 693.955 133.238 709.158 C 131.61 732.763 123.903 753.939 110.131 772.486 C 96.359 791.032 76.73 803.949 51.028 811.421 C 51.956 821.334 53.784 835.731 56.739 854.226 C 59.479 872.906 61.48 887.717 62.74 898.658 C 64 909.599 64.084 920.056 63.38 930.259 C 62.29 946.062 57.513 959.802 49.038 971.679 C 40.361 983.542 29.271 992.425 15.567 998.313 C 2.063 1004.216 -12.61 1006.62 -28.252 1005.541 C -50.31 1004.019 -69.133 996.489 -84.735 983.152 C -100.322 969.615 -108 952.402 -107.339 931.142 C -106.089 921.781 -103.275 913.132 -98.685 905.006 C -94.095 896.881 -88.211 890.453 -80.834 885.737 C -73.643 880.806 -65.228 878.572 -55.762 878.623 C -47.941 879.162 -40.673 881.875 -33.944 886.56 C -27.43 891.431 -22.215 897.62 -18.515 905.312 C -15.015 912.991 -13.375 921.345 -13.983 930.147 C -14.797 941.949 -19.498 951.675 -28.085 959.323 C -36.672 966.971 -47.189 970.467 -59.421 969.623 L -64.033 969.304 C -57.041 981.847 -44.635 988.934 -26.788 990.165 C -17.764 990.788 -8.401 989.424 1.072 986.459 C 10.759 983.309 18.925 978.847 25.984 972.903 C 33.043 966.958 37.924 960.461 40.226 953.384 C 44.201 945.417 46.592 934.125 47.572 919.922 C 48.234 910.32 47.894 900.649 46.752 890.922 C 45.596 881.395 43.658 868.599 40.924 852.732 C 38.177 837.066 36.198 824.87 35.16 816.557 C 22.921 818.728 10.377 819.47 -2.657 818.571 C -24.515 817.063 -44.866 811.236 -63.696 800.892 C -82.527 790.548 -98.716 776.969 -112.451 759.942 C -125.986 742.928 -136.174 724.136 -142.988 703.164 C -149.615 682.406 -152.363 660.91 -151.045 638.892 C -148.835 618.543 -143.672 599.201 -135.183 581.295 C -126.68 563.189 -116.241 546.222 -103.679 530.607 C -91.117 514.992 -78.251 500.805 -65.093 488.246 C -51.75 475.901 -34.333 460.018 -12.457 440.824 Z" style="fill:#fd6300;fill-opacity:1;fill-rule:evenodd;stroke:none;stroke-width:20;stroke-miterlimit:4;stroke-dasharray:none;stroke-opacity:0.21198156" id="path9"></path></g><g transform="translate(624.71198,55.830292)" id="layer3"></g></svg>