<?xml version="1.0" encoding="UTF-8" standalone="no"?>
<svg
   xmlns:osb="http://www.openswatchbook.org/uri/2009/osb"
   xmlns:dc="http://purl.org/dc/elements/1.1/"
   xmlns:cc="http://creativecommons.org/ns#"
   xmlns:rdf="http://www.w3.org/1999/02/22-rdf-syntax-ns#"
   xmlns:svg="http://www.w3.org/2000/svg"
   xmlns="http://www.w3.org/2000/svg"
   xmlns:sodipodi="http://sodipodi.sourceforge.net/DTD/sodipodi-0.dtd"
   xmlns:inkscape="http://www.inkscape.org/namespaces/inkscape"
   id="svg1894"
   height="1083.0768"
   width="4332.5098"
   version="1.0"
   sodipodi:docname="Staff.svg"
   inkscape:version="0.92.4 5da689c313, 2019-01-14">
  <sodipodi:namedview
     pagecolor="#ffffff"
     bordercolor="#666666"
     borderopacity="1"
     objecttolerance="10"
     gridtolerance="10"
     guidetolerance="10"
     inkscape:pageopacity="0"
     inkscape:pageshadow="2"
     inkscape:window-width="1918"
     inkscape:window-height="1078"
     id="namedview49"
     showgrid="false"
     inkscape:zoom="0.40737093"
     inkscape:cx="1602.4353"
     inkscape:cy="413.8906"
     inkscape:window-x="0"
     inkscape:window-y="0"
     inkscape:window-maximized="0"
     inkscape:current-layer="layer2" />
  <metadata
     id="metadata2601">
    <rdf:RDF>
      <cc:Work
         rdf:about="">
        <dc:format>image/svg+xml</dc:format>
        <dc:type
           rdf:resource="http://purl.org/dc/dcmitype/StillImage" />
        <dc:title></dc:title>
      </cc:Work>
    </rdf:RDF>
  </metadata>
  <defs
     id="defs1896">
    <linearGradient
       osb:paint="solid"
       id="linearGradient823">
      <stop
         id="stop821"
         offset="0"
         style="stop-color:#fd6300;stop-opacity:1;" />
    </linearGradient>
    <filter
       height="1.1032"
       y="-0.051600002"
       width="1.1032"
       x="-0.051600002"
       id="filter1352"
       style="color-interpolation-filters:sRGB">
      <feGaussianBlur
         id="feGaussianBlur1354"
         stdDeviation="4.9970926" />
    </filter>
    <filter
       height="1.1032"
       y="-0.051600002"
       width="1.1032"
       x="-0.051600002"
       id="filter1352-9-2"
       style="color-interpolation-filters:sRGB">
      <feGaussianBlur
         id="feGaussianBlur1354-3-6"
         stdDeviation="4.9970926" />
    </filter>
    <filter
       height="1.1032"
       y="-0.051600002"
       width="1.1032"
       x="-0.051600002"
       id="filter1352-3"
       style="color-interpolation-filters:sRGB">
      <feGaussianBlur
         id="feGaussianBlur1354-6"
         stdDeviation="4.9970926" />
    </filter>
    <filter
       height="1.1032"
       y="-0.051600002"
       width="1.1032"
       x="-0.051600002"
       id="filter1352-6"
       style="color-interpolation-filters:sRGB">
      <feGaussianBlur
         id="feGaussianBlur1354-2"
         stdDeviation="4.9970926" />
    </filter>
    <filter
       height="1.1032"
       y="-0.051600002"
       width="1.1032"
       x="-0.051600002"
       id="filter1352-0"
       style="color-interpolation-filters:sRGB">
      <feGaussianBlur
         id="feGaussianBlur1354-9"
         stdDeviation="4.9970926" />
    </filter>
  </defs>
  <g
     transform="translate(624.71198,55.830292)"
     id="layer1">
    <g
       id="g1934"
       transform="translate(5.0000057,191.4673)">
      <path
         id="path11"
         style="fill:none;fill-rule:evenodd;stroke:#ff0a09;stroke-width:12"
         d="M 4.2160405,395.78396 H 3060" />
      <path
         id="path13"
         style="fill:none;fill-rule:evenodd;stroke:#ff0a09;stroke-width:12"
         d="M 4.2160405,635.78396 H 3060" />
      <path
         id="path15"
         style="fill:none;fill-rule:evenodd;stroke:#ff0a09;stroke-width:12"
         d="M 4.2160405,515.78396 H 3060" />
      <path
         id="path17"
         style="fill:none;fill-rule:evenodd;stroke:#ff0a09;stroke-width:12"
         d="M 4.2160405,275.78396 H 3060" />
    </g>
  </g>
  <g
     transform="translate(624.71198,55.830292)"
     id="layer2">
    <rect
       y="-55.830292"
       x="-624.71198"
       height="1083.0768"
       width="4332.5098"
       id="rect1606"
       style="opacity:1;fill:#000000;fill-opacity:0.55299539;fill-rule:nonzero;stroke:none;stroke-width:19.99999809;stroke-linecap:butt;stroke-linejoin:miter;stroke-miterlimit:4;stroke-dasharray:none;stroke-dashoffset:0;stroke-opacity:0.21198156;paint-order:markers stroke fill" />
    <path
       d="m 253.15412,641.98044 c -12.46702,2.55674 -24.02073,9.39743 -35.04838,20.29436 -11.04143,11.09696 -16.95189,23.75394 -17.9181,37.75706 -0.60732,8.80196 1.7105,19.01173 6.79435,30.01535 5.07003,11.20365 13.35508,19.61418 24.44026,25.40398 3.75488,1.06306 5.42162,3.18804 5.22838,5.98866 -0.069,1.00023 -1.54175,1.9036 -5.00598,2.46856 -17.93083,-5.86014 -32.2943,-16.70005 -42.91747,-32.10582 -10.60938,-15.6058 -15.46587,-32.82464 -14.54185,-52.05658 2.02329,-20.56307 9.56482,-39.33841 22.61078,-56.12599 13.26031,-16.97377 29.57075,-28.51116 48.93136,-34.61219 l -8.93661,-71.97051 c -32.64851,23.47488 -59.55063,48.35125 -80.93452,75.01534 -21.37009,26.46407 -33.48086,55.97896 -36.53285,88.53087 -0.60655,14.63092 1.42141,29.04162 6.09768,43.03207 4.66246,14.19049 12.22897,27.17438 22.67194,39.35177 21.10025,24.16853 49.7639,38.00511 85.57611,41.68209 12.28758,0.0438 25.47391,-1.25727 39.75952,-3.88952 z m 14.57623,-1.00421 20.66841,155.99269 c 31.73752,-10.27194 49.04177,-36.21255 51.88517,-77.42172 -0.85238,-13.92759 -4.00722,-26.60708 -10.06611,-38.07998 -5.84456,-11.65908 -14.06059,-21.06985 -24.84863,-28.2461 -10.78802,-7.17627 -23.20062,-11.24867 -37.63884,-12.24489 z M 240.97652,430.09347 c 6.89357,-3.54429 14.99684,-10.02005 23.89496,-19.25494 8.88429,-9.03486 17.69228,-19.88392 26.19583,-32.16099 8.71789,-12.46328 15.84533,-25.23729 21.38234,-38.32202 5.52319,-12.8847 8.59862,-25.33531 9.39918,-36.93789 0.34507,-5.00111 0.28908,-10.0299 -0.4099,-14.50006 -0.30523,-7.25695 -2.12459,-13.01038 -5.67241,-17.07413 -3.56164,-3.8637 -8.23635,-6.19621 -14.25226,-6.61131 -12.03186,-0.83017 -23.37123,5.8243 -34.01811,19.96344 -8.30303,12.29091 -15.5685,27.06536 -21.16723,43.96478 -5.81305,17.08563 -9.607,34.1096 -11.20891,51.48579 -0.36382,19.87359 1.72664,36.29858 5.85651,49.44733 z m -13.434,10.73089 c -6.78782,-33.02985 -9.52362,-66.38311 -8.2074,-100.05976 1.69125,-21.59096 5.29118,-41.64326 10.7998,-60.15689 5.30808,-18.52745 12.24151,-34.3298 20.82787,-47.80712 8.38585,-13.49117 17.74021,-23.49856 27.86261,-30.03603 9.0645,-5.80645 15.51561,-8.77828 18.92464,-8.54306 2.60689,0.17987 4.74372,1.3323 6.6248,3.27107 1.88108,1.93877 4.28094,5.1193 7.21338,9.34157 21.53047,35.45406 30.74654,77.09332 27.46145,124.70391 -1.55972,22.60503 -6.08599,44.40238 -13.62024,65.99218 -7.31989,21.40359 -17.37822,41.61325 -30.14736,60.22889 -12.98346,18.80186 -27.7928,34.86477 -44.64234,48.37494 l 10.80467,79.93828 c 8.89236,-0.39142 14.9635,-0.7765 18.37252,-0.54129 15.24035,1.05157 28.65559,5.19317 40.84733,12.46628 12.19175,7.27313 22.4269,16.6222 30.49109,28.23345 8.078,11.41121 14.04027,24.28441 17.88681,38.61959 3.64601,14.32135 5.2453,29.10448 4.19628,44.30785 -1.62873,23.60526 -9.3359,44.78113 -23.10769,63.32759 -13.77178,18.54646 -33.40115,31.46283 -59.10243,38.93534 0.92791,9.91286 2.75533,24.30974 5.71042,42.80437 2.74074,18.68083 4.7411,33.4916 6.00106,44.43234 1.25995,10.94076 1.34432,21.39846 0.64037,31.60071 -1.09042,15.80361 -5.8667,29.54372 -14.34266,41.4207 -8.67647,11.86313 -19.76661,20.74578 -33.47093,26.63409 -13.50381,5.90214 -28.17667,8.30664 -43.81808,7.22734 -22.05838,-1.5219 -40.88144,-9.05157 -56.483,-22.38888 -15.58774,-13.53729 -23.26546,-30.74982 -22.60448,-52.00997 1.25033,-9.36048 4.06349,-18.01027 8.65383,-26.13541 4.59034,-8.12514 10.47396,-14.55307 17.85142,-19.26994 7.19072,-4.93079 15.60573,-7.16411 25.07208,-7.1139 7.8207,0.53963 15.08851,3.25204 21.81722,7.93729 6.51438,4.8714 11.72897,11.06007 15.42941,18.75229 3.4999,7.67839 5.13982,16.03243 4.5325,24.83437 -0.81437,11.80263 -5.51512,21.52807 -14.10228,29.17644 -8.58714,7.64837 -19.10408,11.14373 -31.33645,10.29962 l -4.61221,-0.31821 c 6.99253,12.54231 19.3986,19.62923 37.24585,20.86067 9.02388,0.6226 18.38633,-0.74133 27.8592,-3.70565 9.68719,-3.15056 17.85297,-7.61209 24.91217,-13.5569 7.05922,-5.9449 11.94019,-12.44197 14.24186,-19.51898 3.97495,-7.96659 6.36596,-19.25844 7.34596,-33.4616 0.66254,-9.60212 0.32242,-19.27341 -0.81982,-29.0001 -1.15604,-9.52661 -3.09389,-22.32313 -5.82735,-38.18952 -2.74726,-15.6663 -4.72652,-27.86271 -5.76484,-36.1752 -12.23891,2.17048 -24.78223,2.91299 -37.81674,2.01363 -21.85784,-1.50817 -42.20886,-7.33432 -61.03921,-17.67845 -18.83036,-10.34413 -35.0197,-23.92299 -48.75475,-40.95044 -13.53452,-17.01362 -23.72251,-35.8063 -30.536384,-56.77814 -6.627142,-20.75796 -9.375182,-42.25323 -8.057404,-64.27196 2.210017,-20.3492 7.37278,-39.69067 15.861758,-57.59665 8.50277,-18.10605 18.94184,-35.07348 31.50393,-50.68845 12.56209,-15.61497 25.42862,-29.80196 38.58579,-42.36091 13.3439,-12.34509 30.76014,-28.22812 52.63597,-47.42139 z"
       style="fill:#fd6300;fill-opacity:1;fill-rule:evenodd;stroke:none;stroke-width:20;stroke-miterlimit:4;stroke-dasharray:none;stroke-opacity:0.21198156"
       id="path9" />
  </g>
  <g
     transform="translate(624.71198,55.830292)"
     id="layer3" />
</svg>
